<?xml version="1.0" encoding="UTF-8"?>
<svg id="katman_1" data-name="katman 1" xmlns="http://www.w3.org/2000/svg" viewBox="0 0 57.06 69.65">
  <defs>
    <style>
      .cls-1 {
        fill: #45b3e6;
      }
    </style>
  </defs>
  <path class="cls-1" d="m28.53,67.27c-10.96,0-19.88-8.91-19.88-19.86v-9.95c0-5.32,2.08-10.32,5.86-14.08.54-.54.83.06,1.37.61.54.54,1.14.83.6,1.37-3.25,3.24-5.04,7.53-5.04,12.11v9.95c0,9.42,7.67,17.08,17.09,17.08s17.07-7.66,17.07-17.08v-9.95c0-4.55-1.78-8.84-5-12.08-.54-.54.04-.84.58-1.39.54-.54.8-1.17,1.34-.63,3.8,3.81,5.86,8.8,5.86,14.1v9.95c0,10.95-8.91,19.86-19.86,19.86Z"/>
  <path class="cls-1" d="m36.28,29.12h-15.52c-4.32,0-7.84-3.52-7.84-7.84v-1.81c0-4.32,3.52-7.84,7.84-7.84h15.52c4.32,0,7.84,3.52,7.84,7.84v1.81c0,4.32-3.52,7.84-7.84,7.84Zm-15.52-14.7c-2.78,0-5.05,2.26-5.05,5.05v1.81c0,2.78,2.26,5.05,5.05,5.05h15.52c2.78,0,5.05-2.26,5.05-5.05v-1.81c0-2.78-2.26-5.05-5.05-5.05h-15.52Z"/>
  <path class="cls-1" d="m20.49,14.52c-.58,0-1.13-.37-1.32-.95-.32-.96-.49-1.98-.49-3.01,0-6.67,6.65-6.67,9.85-6.67s9.83,0,9.83,6.67c0,1.03-.16,2.04-.48,3.01-.24.73-1.03,1.12-1.76.88-.73-.24-1.13-1.03-.88-1.76.23-.68.34-1.4.34-2.13,0-2.94-1.71-3.88-7.05-3.88s-7.06.94-7.06,3.88c0,.74.12,1.45.34,2.13.24.73-.15,1.52-.88,1.76-.15.05-.3.07-.44.07Z"/>
  <path class="cls-1" d="m35.5,8.2c-.36,0-.71-.14-.98-.41-.54-.54-.54-1.43,0-1.97L39.93.41c.54-.54,1.43-.54,1.97,0s.54,1.43,0,1.97l-5.42,5.42c-.27.27-.63.41-.98.41Z"/>
  <path class="cls-1" d="m21.56,8.2c-.36,0-.71-.14-.98-.41l-5.42-5.42c-.54-.54-.54-1.43,0-1.97.54-.54,1.43-.54,1.97,0l5.42,5.42c.54.54.54,1.43,0,1.97-.27.27-.63.41-.98.41Z"/>
  <path class="cls-1" d="m45.34,31.22c-.63,0-1.2-.43-1.35-1.07-.18-.75.28-1.5,1.03-1.68l7.83-1.88,1.44-9.01c.12-.76.83-1.28,1.6-1.15.76.12,1.28.84,1.15,1.6l-1.59,9.93c-.09.56-.5,1-1.05,1.13l-8.74,2.09c-.11.03-.22.04-.33.04Z"/>
  <path class="cls-1" d="m55.2,69.65c-.67,0-1.27-.49-1.37-1.17l-1.44-9.02-7.83-1.87c-.75-.18-1.21-.93-1.03-1.68.18-.75.93-1.21,1.68-1.03l8.74,2.09c.55.13.96.58,1.05,1.13l1.59,9.93c.12.76-.4,1.47-1.15,1.6-.07.01-.15.02-.22.02Z"/>
  <path class="cls-1" d="m55.67,51.37c-.57,0-1.1-.35-1.31-.91l-1.9-5.19-5.67-.87c-.76-.12-1.28-.83-1.17-1.59.12-.76.81-1.28,1.59-1.17l6.48.99c.5.08.92.42,1.1.9l2.18,5.96c.27.72-.11,1.52-.83,1.79-.16.06-.32.09-.48.09Z"/>
  <path class="cls-1" d="m11.72,31.22c-.11,0-.22-.01-.33-.04l-8.74-2.09c-.55-.13-.96-.58-1.05-1.13L.02,18.02c-.12-.76.4-1.47,1.15-1.6.76-.13,1.47.4,1.6,1.15l1.44,9.01,7.83,1.88c.75.18,1.21.93,1.03,1.68-.15.64-.72,1.07-1.35,1.07Z"/>
  <path class="cls-1" d="m1.86,69.65c-.07,0-.15,0-.22-.02-.76-.12-1.28-.84-1.15-1.6l1.59-9.93c.09-.56.5-1,1.05-1.13l8.74-2.09c.75-.17,1.5.28,1.68,1.03s-.28,1.5-1.03,1.68l-7.83,1.87-1.44,9.02c-.11.68-.7,1.17-1.37,1.17Z"/>
  <path class="cls-1" d="m1.39,51.37c-.16,0-.32-.03-.48-.09-.72-.26-1.09-1.07-.83-1.79l2.19-5.96c.17-.48.59-.82,1.1-.9l6.48-.99c.76-.12,1.47.41,1.59,1.17.12.76-.41,1.47-1.17,1.59l-5.67.87-1.9,5.19c-.21.56-.74.91-1.31.91Z"/>
  <path class="cls-1" d="m39.96,63.3c-.37,0-.73-.14-1.01-.43l-11.43-11.93c-.25-.26-.39-.61-.39-.96v-22.25c0-.77.62-1.39,1.39-1.39s1.39.62,1.39,1.39v21.69l11.05,11.52c.53.56.51,1.44-.04,1.97-.27.26-.62.39-.96.39Z"/>
  <path class="cls-1" d="m17.09,63.3c-.35,0-.69-.13-.96-.39-.56-.53-.57-1.41-.04-1.97l11.44-11.93c.53-.55,1.41-.57,1.97-.04.56.53.57,1.41.04,1.97l-11.44,11.93c-.27.28-.64.43-1.01.43Z"/>
</svg>